<svg xmlns="http://www.w3.org/2000/svg" version="1.0" width="123.000000pt" height="106.000000pt" viewBox="0 0 123.000000 106.000000" preserveAspectRatio="xMidYMid meet">

<g transform="translate(0.000000,106.000000) scale(0.100000,-0.100000)" fill="#1890ff" stroke="none">
<path d="M583 949 l-53 -40 0 -169 c0 -123 -3 -170 -12 -170 -6 0 -33 -14 -60 -31 l-48 -31 0 -188 0 -187 -82 -15 -83 -15 93 -2 92 -1 0 198 0 198 39 22 c21 12 41 22 45 22 3 0 6 -99 6 -220 l0 -220 50 0 50 0 0 200 0 199 -30 23 -30 22 0 178 0 177 38 26 37 25 3 -425 c1 -272 6 -425 12 -425 6 0 10 88 10 239 l0 239 34 26 c19 14 40 26 46 26 7 0 10 -78 10 -262 l-1 -263 113 -2 113 -1 -62 15 -63 15 0 228 0 228 -55 47 -55 47 0 113 0 113 -49 41 c-27 23 -50 41 -52 40 -2 0 -28 -18 -56 -40z" fill="#1890ff"/>
</g>
</svg>